<?xml version="1.0" encoding="UTF-8"?>
<svg version="1.1" xmlns="http://www.w3.org/2000/svg" width="256" height="256">
<path d="M0 0 C1.52524644 -0.00599212 3.05048987 -0.01279923 4.57572937 -0.02035522 C8.70211348 -0.037957 12.82841453 -0.04270825 16.95483255 -0.0439868 C19.53933343 -0.04541273 22.12381349 -0.04969077 24.70830917 -0.05498123 C33.74354125 -0.07346516 42.77871449 -0.08165426 51.81396484 -0.08007812 C60.20500691 -0.0788785 68.59579103 -0.09994978 76.98676789 -0.13156545 C84.21512585 -0.15781934 91.44340006 -0.16844156 98.67180526 -0.16716731 C102.97809486 -0.16666017 107.28415523 -0.17220433 111.59039688 -0.19352341 C115.64696318 -0.21305913 119.70308528 -0.21292705 123.75966835 -0.19849014 C125.23735398 -0.19641949 126.71506855 -0.20099713 128.19270515 -0.21321106 C146.77296276 -0.35668024 162.06902182 5.02924927 175.65185547 17.91552734 C185.23749145 28.03369866 192.11843759 41.92640424 192.17601013 56.02966309 C192.18598526 57.34704468 192.19596039 58.66442627 192.20623779 60.02172852 C192.20713344 61.46484363 192.20779709 62.9079589 192.20825195 64.35107422 C192.21588116 65.88440348 192.22430996 67.41772895 192.23347473 68.9510498 C192.25535959 73.10441003 192.26421125 77.25769665 192.26930118 81.41110802 C192.27295379 84.01252987 192.27919871 86.61393272 192.28630257 89.21534729 C192.31078229 98.3100773 192.32384445 107.40475046 192.32739258 116.49951172 C192.33102022 124.94452768 192.36086384 133.38917852 192.40279716 141.83408308 C192.43763624 149.10829629 192.45294341 156.38238939 192.45363861 163.65668535 C192.45442721 167.99046901 192.4629709 172.3238809 192.49163628 176.65757751 C192.51804957 180.74210638 192.51989461 184.82596153 192.50398064 188.91053772 C192.50218407 190.39748622 192.50869185 191.88447555 192.52479935 193.37133789 C192.70970064 211.5706674 186.82730273 226.64007183 174.31201172 239.97021484 C160.82811243 252.95147283 145.02317761 256.59539121 126.89550781 256.58105469 C125.38011344 256.5870469 123.8647221 256.59385403 122.34933472 256.60140991 C118.24980915 256.61901078 114.15036718 256.6237629 110.05080748 256.62504148 C107.48305752 256.62646747 104.91532851 256.63074562 102.34758377 256.63603592 C93.3707063 256.65451958 84.39388806 256.66270898 75.41699219 256.66113281 C67.08048099 256.65993321 58.74422943 256.68100418 50.40778387 256.71262014 C43.22613457 256.73887512 36.04456957 256.7494962 28.86287272 256.74822199 C24.58452819 256.74771488 20.30641439 256.75325732 16.02811813 256.77457809 C11.99781574 256.79411568 7.96796043 256.79398051 3.93764114 256.77954483 C2.46963081 256.77747441 1.00159134 256.78205044 -0.46636963 256.79426575 C-19.0120491 256.93842643 -34.29450029 251.52411291 -47.84814453 238.66552734 C-57.43569598 228.54533415 -64.32415887 214.64535568 -64.36557007 200.53793335 C-64.37010118 199.89592346 -64.37463229 199.25391357 -64.37930071 198.59244883 C-64.39186735 196.4609715 -64.39032941 194.32975224 -64.38867188 192.19824219 C-64.39466216 190.66166865 -64.40146885 189.12509812 -64.4090271 187.58853149 C-64.42664791 183.42703263 -64.43138095 179.2656161 -64.43265867 175.10408354 C-64.43408357 172.49865719 -64.43835967 169.89325154 -64.44365311 167.28783035 C-64.4621436 158.18243337 -64.47032534 149.07709482 -64.46875 139.97167969 C-64.46755032 131.5107709 -64.48862096 123.05011792 -64.52023733 114.58927381 C-64.54647834 107.30490123 -64.55711396 100.02061177 -64.55583918 92.73619235 C-64.55533165 88.39470901 -64.56089789 84.05345293 -64.58219528 79.71201706 C-64.60170896 75.62263712 -64.60161359 71.53369805 -64.58716202 67.44430161 C-64.58508866 65.95329639 -64.58968571 64.46226262 -64.60188293 62.97130585 C-64.74137882 44.72019857 -59.09814441 29.86635209 -46.47705078 16.54052734 C-32.93530112 3.73256707 -18.1208331 -0.01423652 0 0 Z " fill="#40B1E7" transform="translate(64.09814453125,-0.29052734375)"/>
<path d="M0 0 C3.02072637 -0.00221732 6.04110388 -0.02054475 9.06176758 -0.03930664 C11.00903198 -0.04223639 12.95629808 -0.04422398 14.90356445 -0.04516602 C15.79326431 -0.05235153 16.68296417 -0.05953705 17.59962463 -0.06694031 C25.35681772 -0.03871184 31.92318235 1.57575727 39.1184082 4.56030273 C40.10196289 4.95991211 41.08551758 5.35952148 42.09887695 5.77124023 C52.12116916 10.77547441 56.91950347 20.30325666 60.88793945 30.32592773 C63.75299177 40.92769436 64.2807002 51.65624762 64.24658203 62.5715332 C64.24340987 64.68419558 64.26704685 66.79546671 64.29223633 68.90795898 C64.36705478 84.92003884 61.67106645 103.28505142 49.9309082 115.18530273 C39.53030691 123.78579996 28.27795304 126.34775616 15.09887695 126.31811523 C14.14886307 126.31907196 13.19884918 126.32002869 12.220047 126.3210144 C10.20870904 126.32169356 8.19736887 126.31985774 6.18603516 126.31567383 C3.16669529 126.31038728 0.14750869 126.31559369 -2.87182617 126.32202148 C-11.91060901 126.32555578 -20.9294546 126.24600284 -29.95581055 125.73999023 C-30.66896927 125.70124786 -31.38212799 125.66250549 -32.11689758 125.62258911 C-36.94160653 125.312788 -36.94160653 125.312788 -38.0690918 124.18530273 C-38.16720314 122.60607545 -38.19541071 121.0224574 -38.19607544 119.44018555 C-38.19889526 118.41372925 -38.20171509 117.38727295 -38.20462036 116.32971191 C-38.20259613 115.19408813 -38.2005719 114.05846436 -38.19848633 112.88842773 C-38.20111481 111.10571472 -38.20111481 111.10571472 -38.20379639 109.2869873 C-38.2074545 106.01847497 -38.20658151 102.75000285 -38.2034173 99.48149109 C-38.20089326 96.0679821 -38.20323136 92.65447588 -38.20480347 89.2409668 C-38.20662504 83.50756342 -38.20421919 77.77417291 -38.19946289 72.04077148 C-38.19402029 65.40324498 -38.19578296 58.76574918 -38.2012893 52.12822342 C-38.20582079 46.43906007 -38.2064708 40.74990599 -38.20385063 35.06074142 C-38.20228805 31.65861253 -38.20209355 28.25649809 -38.20538712 24.85437012 C-38.20791189 21.06361786 -38.20407551 17.27292551 -38.19848633 13.48217773 C-38.20051056 12.34655396 -38.20253479 11.21093018 -38.20462036 10.04089355 C-38.20180054 9.01443726 -38.19898071 7.98798096 -38.19607544 6.93041992 C-38.19569841 6.03297058 -38.19532139 5.13552124 -38.19493294 4.21087646 C-38.0690918 2.18530273 -38.0690918 2.18530273 -37.0690918 1.18530273 C-34.68804071 0.93986745 -32.33644948 0.76335869 -29.94799805 0.63452148 C-29.19756729 0.59268234 -28.44713654 0.5508432 -27.67396545 0.50773621 C-18.4536469 0.04175916 -9.23028472 -0.00075888 0 0 Z " fill="#FEFEFE" transform="translate(115.069091796875,64.814697265625)"/>
<path d="M0 0 C26 0 26 0 34 4 C43.70996104 13.70996104 43.18044604 25.49544704 43.1875 38.3125 C43.19974609 39.47201172 43.21199219 40.63152344 43.22460938 41.82617188 C43.2431932 52.84637716 43.09683008 62.78694748 35 71 C24.66712103 79.74650336 14.54367748 76 0 76 C0 50.92 0 25.84 0 0 Z " fill="#3B9ECD" transform="translate(106,90)"/>
</svg>
